<svg width="553" height="205" viewBox="0 0 553 205" fill="none" xmlns="http://www.w3.org/2000/svg">
<g clip-path="url(#clip0_707_3)">
<path d="M285.503 67.9006L311.813 66.2031C312.413 70.4968 313.513 73.6921 315.314 75.9888C318.215 79.5835 322.217 81.3809 327.518 81.3809C331.42 81.3809 334.521 80.4822 336.622 78.585C338.622 77.0872 339.823 74.6907 339.823 72.1943C339.823 69.7978 338.723 67.5012 336.822 66.0034C334.821 64.206 330.119 62.4086 322.717 60.811C310.612 58.1149 301.909 54.5202 296.807 49.9269C291.706 45.6332 288.804 39.3424 289.005 32.6522C289.005 28.0589 290.405 23.4656 293.006 19.6712C296.007 15.3775 300.109 11.9824 305.01 10.0852C310.312 7.78858 317.715 6.59033 327.018 6.59033C338.422 6.59033 347.126 8.68726 353.128 12.981C359.13 17.1748 362.731 23.9649 363.832 33.2513L337.822 34.7491C337.122 30.755 335.721 27.8592 333.421 25.962C331.12 24.0648 328.119 23.1661 324.217 23.1661C321.016 23.1661 318.615 23.8651 317.015 25.1632C315.514 26.3614 314.514 28.1588 314.614 30.1558C314.614 31.6537 315.414 33.0516 316.615 33.9503C317.915 35.1485 321.016 36.2469 325.918 37.2455C338.022 39.8417 346.625 42.4379 351.927 45.1339C357.229 47.83 361.031 51.1252 363.331 55.0195C365.732 59.0136 366.933 63.6069 366.833 68.3C366.833 73.8918 365.232 79.4837 362.031 84.1768C358.73 89.0696 354.128 92.8641 348.726 95.1607C343.024 97.6571 335.821 98.9552 327.218 98.9552C312.013 98.9552 301.509 96.0594 295.607 90.168C289.705 84.2766 286.204 76.8875 285.503 67.9006ZM6.30228 97.4574V8.18799H52.419C60.922 8.18799 67.5244 8.88697 72.026 10.3848C76.4276 11.7827 80.3291 14.6785 82.93 18.5728C85.831 22.8665 87.2315 27.8592 87.1315 33.0516C87.4316 41.8387 82.93 50.2265 75.2272 54.62C72.2261 56.3176 68.9249 57.5158 65.5237 58.1149C68.0246 58.8139 70.5255 60.0122 72.7263 61.4101C74.4269 62.8081 75.8274 64.4057 77.1279 66.1032C78.6284 67.8008 79.9289 69.698 81.0293 71.6951L94.4342 97.5572H63.0228L48.2174 70.0974C46.3168 66.6025 44.7162 64.3059 43.2156 63.2075C41.2149 61.8095 38.814 61.1105 36.4132 61.1105H34.0123V97.3575H6.30228V97.4574ZM34.0123 44.3351H45.7165C48.2174 44.1354 50.6183 43.736 53.0192 43.1368C54.8198 42.8373 56.4204 41.8388 57.5208 40.3409C60.2218 36.7462 59.8216 31.6537 56.5204 28.5582C54.7198 27.0604 51.2185 26.2615 46.2167 26.2615H34.0123V44.3351ZM0 173.945L26.3095 172.248C26.9097 176.542 28.0101 179.737 29.8108 182.034C32.6118 185.628 36.7133 187.526 42.0152 187.526C45.9166 187.526 49.0177 186.627 51.1185 184.73C53.1192 183.132 54.3196 180.835 54.3196 178.339C54.3196 175.942 53.2192 173.646 51.3186 172.148C49.3178 170.351 44.6161 168.553 37.1134 166.956C25.009 164.26 16.3059 160.665 11.2041 156.072C6.10221 151.778 3.20116 145.487 3.40123 138.797C3.40123 134.204 4.80174 129.61 7.40268 125.816C10.4038 121.522 14.5052 118.127 19.407 116.23C24.7089 113.933 32.1116 112.735 41.415 112.735C52.8191 112.735 61.5223 114.832 67.5244 119.126C73.5266 123.419 77.0279 130.11 78.1283 139.396L52.1188 140.894C51.4186 136.9 50.0181 134.004 47.7173 132.107C45.5165 130.209 42.4153 129.311 38.5139 129.411C35.3128 129.411 32.9119 130.11 31.3113 131.508C29.7107 132.706 28.8104 134.503 28.9105 136.5C28.9105 137.998 29.7107 139.396 30.9112 140.295C32.2116 141.493 35.3128 142.591 40.2145 143.59C52.3189 146.186 60.922 148.782 66.2239 151.478C71.5259 154.174 75.3272 157.47 77.6281 161.364C80.0289 165.358 81.2294 169.951 81.2294 174.545C81.2294 180.136 79.5288 185.628 76.4276 190.321C73.1264 195.214 68.5248 199.009 63.1228 201.305C57.4208 203.802 50.2182 205.1 41.615 205.1C26.4096 205.1 15.9058 202.204 10.0036 196.313C4.10148 190.321 0.800289 182.932 0 173.945H0Z" fill="#58AEB3"/>
<path d="M133.048 166.956L157.257 174.245C155.956 180.336 153.255 186.128 149.554 191.22C146.153 195.714 141.651 199.208 136.549 201.505C131.347 203.802 124.745 205 116.742 205C107.039 205 99.0358 203.602 92.9336 200.806C86.7313 198.01 81.4294 193.017 76.9278 185.928C72.4261 178.838 70.2253 169.752 70.2253 158.668C70.2253 143.889 74.1268 132.506 82.0296 124.618C89.9325 116.729 101.036 112.735 115.442 112.735C126.746 112.735 135.549 115.032 142.051 119.525C148.454 124.118 153.255 131.108 156.457 140.494L132.048 145.886C131.447 143.79 130.547 141.693 129.347 139.895C127.846 137.798 125.945 136.201 123.645 135.002C121.344 133.804 118.743 133.305 116.142 133.305C109.84 133.305 105.038 135.801 101.737 140.894C99.2358 144.588 97.9354 150.48 97.9354 158.468C97.9354 168.354 99.4359 175.144 102.437 178.838C105.438 182.533 109.64 184.33 115.142 184.33C120.444 184.33 124.445 182.832 127.146 179.937C129.847 176.841 131.848 172.547 133.048 166.956ZM189.569 114.233H217.178V145.487H247.389V114.233H275.199V203.502H247.389V167.355H217.178V203.502H189.569V114.233V114.233Z" fill="#58AEB3"/>
<path d="M271.398 158.867C271.398 144.289 275.5 132.905 283.603 124.817C291.706 116.729 303.11 112.635 317.615 112.635C332.52 112.635 343.924 116.629 352.027 124.618C360.13 132.606 364.132 143.79 364.132 158.168C364.132 168.653 362.331 177.141 358.83 183.831C355.429 190.421 350.127 195.813 343.624 199.408C336.922 203.103 328.619 205 318.715 205C308.612 205 300.309 203.402 293.706 200.207C286.904 196.812 281.302 191.52 277.6 185.029C273.499 178.039 271.398 169.352 271.398 158.867ZM299.008 158.967C299.008 167.954 300.709 174.445 304.01 178.439C307.311 182.333 311.913 184.33 317.715 184.33C323.617 184.33 328.219 182.433 331.52 178.539C334.821 174.644 336.422 167.754 336.422 157.769C336.422 149.381 334.721 143.19 331.32 139.396C327.919 135.502 323.317 133.604 317.515 133.604C312.413 133.405 307.511 135.602 304.11 139.496C300.709 143.39 299.008 149.881 299.008 158.967V158.967ZM392.442 158.867C392.442 144.289 396.543 132.905 404.646 124.817C412.749 116.729 424.153 112.635 438.659 112.635C453.564 112.635 465.068 116.629 473.071 124.618C481.074 132.606 485.176 143.79 485.176 158.168C485.176 168.653 483.375 177.141 479.874 183.831C476.472 190.421 471.17 195.813 464.668 199.408C457.966 203.103 449.663 205 439.759 205C429.655 205 421.352 203.402 414.75 200.207C407.948 196.812 402.346 191.52 398.644 185.029C394.543 178.039 392.442 169.352 392.442 158.867V158.867ZM420.052 158.967C420.052 167.954 421.753 174.445 425.054 178.439C428.355 182.333 432.957 184.33 438.759 184.33C444.661 184.33 449.263 182.433 452.564 178.539C455.865 174.644 457.465 167.754 457.465 157.769C457.465 149.381 455.765 143.19 452.364 139.396C448.962 135.502 444.361 133.604 438.559 133.604C433.457 133.405 428.455 135.602 425.154 139.496C421.753 143.39 420.052 149.881 420.052 158.967V158.967Z" fill="#58AEB3"/>
<path d="M482.274 114.233H509.884V181.534H553V203.502H482.174V114.233H482.274Z" fill="#58AEB3"/>
<path d="M451.842 109.081C479.64 88.1716 488.211 52.7269 470.988 29.9129C453.764 7.09895 417.267 5.55501 389.47 26.4644C361.673 47.3738 353.101 82.8186 370.325 105.633C387.548 128.447 424.045 129.99 451.842 109.081Z" fill="#FCBB08"/>
<path d="M451.821 109.083C479.615 88.1689 488.187 52.7178 470.967 29.9008C453.748 7.0839 417.257 5.54144 389.464 26.4557C361.67 47.3699 353.098 82.821 370.317 105.638C387.537 128.455 424.027 129.997 451.821 109.083Z" fill="#FCBB08"/>
<path d="M452.122 109.482C480.06 88.4599 488.805 52.7073 471.367 29.6002C453.928 6.49317 417.1 5.03418 389.162 26.0566C361.225 47.0789 352.479 82.8315 369.918 105.939C387.356 129.046 424.185 130.505 452.122 109.482Z" stroke="white" stroke-miterlimit="10"/>
<path d="M452.424 109.881C480.505 88.7508 489.424 52.6967 471.766 29.2996C454.109 5.90243 416.942 4.52692 388.861 25.6575C360.78 46.788 351.861 82.8421 369.518 106.239C387.176 129.636 424.342 131.012 452.424 109.881Z" stroke="white" stroke-width="2" stroke-miterlimit="10"/>
<path d="M451.821 109.083C479.615 88.1689 488.187 52.7178 470.967 29.9008C453.748 7.0839 417.257 5.54144 389.464 26.4557C361.67 47.3699 353.098 82.821 370.317 105.638C387.537 128.455 424.027 129.997 451.821 109.083Z" stroke="#58AEB3" stroke-width="3" stroke-miterlimit="10"/>
<path d="M392.542 61.2105L402.546 54.2208L414.85 71.6952C416.951 74.4911 418.551 77.4867 419.752 80.7819C420.452 83.2782 420.252 85.9743 419.252 88.3708C417.951 91.3664 415.85 93.8628 413.049 95.6601C409.748 97.9568 406.947 99.2549 404.546 99.6543C402.245 100.054 399.845 99.6543 397.644 98.6557C395.243 97.4575 393.142 95.76 391.542 93.5632L400.145 85.5749C400.845 86.6733 401.745 87.6718 402.746 88.4706C403.446 88.9699 404.246 89.2695 405.147 89.2695C405.847 89.2695 406.547 88.9699 407.047 88.5705C408.048 87.9714 408.748 86.7731 408.648 85.5749C408.348 83.8774 407.647 82.1799 406.547 80.8818L392.542 61.2105V61.2105ZM422.553 72.2943L431.656 65.1048C432.657 66.3031 433.957 67.2018 435.357 67.701C437.358 68.3002 439.459 67.9007 441.16 66.6026C442.36 65.8038 443.36 64.7054 443.761 63.3075C444.361 61.5101 443.36 59.513 441.56 58.9139C441.26 58.814 440.96 58.7142 440.659 58.7142C439.459 58.6143 437.358 59.1136 434.257 60.4117C429.155 62.5086 425.154 63.3075 422.153 63.0079C419.252 62.7083 416.551 61.2105 414.95 58.7142C413.75 57.0167 413.149 55.0196 413.049 53.0225C413.049 50.7259 413.65 48.4292 414.95 46.532C416.851 43.836 419.152 41.5393 421.953 39.742C426.154 36.8462 429.855 35.4482 433.057 35.4482C436.258 35.4482 439.259 36.946 442.06 40.0415L433.057 47.1311C431.256 44.8345 427.855 44.3352 425.554 46.1326L425.254 46.4322C424.253 47.0313 423.553 47.93 423.153 49.0284C422.853 49.8272 423.053 50.7259 423.553 51.4249C423.953 51.9241 424.554 52.3235 425.254 52.3235C426.054 52.4234 427.455 52.024 429.455 51.1253C434.457 49.0284 438.259 47.8301 440.859 47.4307C443.06 47.0313 445.361 47.231 447.462 48.1297C449.363 48.9285 450.963 50.3265 452.064 52.024C453.464 54.0211 454.264 56.4176 454.364 58.9139C454.464 61.5101 453.764 64.0065 452.364 66.2032C450.563 68.8993 448.262 71.1959 445.561 72.9933C440.059 76.7877 435.558 78.3854 431.956 77.7863C428.055 77.1872 424.854 75.1901 422.553 72.2943V72.2943Z" fill="#58AEB3"/>
</g>
<defs>
<clipPath id="clip0_707_3">
<rect width="553" height="205" fill="white"/>
</clipPath>
</defs>
</svg>
